<?xml version="1.0" encoding="utf-8"?>
<!-- Generator: Adobe Illustrator 19.2.1, SVG Export Plug-In . SVG Version: 6.00 Build 0)  -->
<!DOCTYPE svg PUBLIC "-//W3C//DTD SVG 1.1//EN" "http://www.w3.org/Graphics/SVG/1.1/DTD/svg11.dtd">
<svg version="1.1" id="Layer_1" xmlns="http://www.w3.org/2000/svg" xmlns:xlink="http://www.w3.org/1999/xlink" x="0px" y="0px"
	 viewBox="0 0 296.1 36.3" style="enable-background:new 0 0 296.1 36.3;" xml:space="preserve">
<style type="text/css">
	.st0{fill:#FFFFFF;}
</style>
<g>
	<g>
		<g>
			<polygon class="st0" points="0,5.7 34.7,5.7 34.7,12.2 14.4,12.2 14.4,17.8 32.8,17.8 32.8,24.1 14.4,24.1 14.4,29.8 35,29.8 
				35,36.1 0,36.1 			"/>
			<polygon class="st0" points="39.2,5.7 53.5,5.7 53.5,16 65.6,5.7 76.9,5.7 66.1,15.3 81.5,36.1 64.1,36.1 55.1,23.9 53.5,25.5 
				53.5,36.1 39.2,36.1 			"/>
			<path class="st0" d="M118.1,20.9c0,9.3-9.4,16.9-21,16.9c-11.6,0-21-7.5-21-16.9c0-9.3,9.4-16.9,21-16.9
				C108.7,4.1,118.1,11.6,118.1,20.9z M97.1,20.9 M102,14.4c-0.1-2.6-2.2-4.6-4.9-4.6c-2.6,0-4.7,2-4.9,4.6c0,0.1,0,13.1,0,13.2
				c0,2.7,2.2,4.9,4.9,4.9c2.7,0,4.9-2.2,4.9-4.9C102,27.4,102,14.4,102,14.4z"/>
			<path class="st0" d="M120.9,5.7h28.8c5.6,0,9.4,5.8,9.4,9.8c0,4.2-1.8,7.1-6.7,10c0.9,1.2,9,10.6,9,10.6h-15.9l-7-8.3h-3.3v8.3
				h-14.3L120.9,5.7z M135.2,20.1c0,0,5.7,0,6.4,0c1.4,0,3.4-1.8,3.4-4c0-2-1.3-3.8-3.9-3.8h-5.9L135.2,20.1z"/>
			<polygon class="st0" points="163.6,5.7 178.8,5.7 193.7,21.7 193.7,5.7 202.4,5.7 202.4,36.1 187.9,36.1 172.7,19.8 172.7,36.1 
				163.6,36.1 			"/>
			<polygon class="st0" points="208.1,5.7 242.8,5.7 242.8,12.2 222.4,12.2 222.4,17.8 240.9,17.8 240.9,24.1 222.4,24.1 
				222.4,29.8 243.1,29.8 243.1,36.1 208.1,36.1 			"/>
			<path class="st0" d="M264,3.7c6.7,0,16.7,1.6,19.7,9.6c-2.3,0-14.4,0-14.4,0c-0.7-1.3-1.2-5-5.4-5c-4.3,0-4.4,2.7-4.4,3.2
				c0,0.5,0.3,2.3,4.3,2.6c18.2,1.3,20.6,7.2,20.6,10.8c0,3.7-3.5,11.4-18.6,11.4c-15.1,0-20.7-6.8-20.7-10.5c1,0,14.7,0,14.7,0
				c0.3,1.6,1.5,5.7,5.7,5.7c4.2,0,5-3.1,5-3.6c0-0.5-0.2-3.3-5.3-3.3c-5.1,0-19.8,0.2-19.8-10.3C245.5,3.8,263.6,3.7,264,3.7z"/>
			<path class="st0" d="M285.9,5.6c0-3.1,2.5-5.6,5.6-5.6c3.1,0,5.6,2.5,5.6,5.6c0,3.1-2.5,5.6-5.6,5.6
				C288.4,11.3,285.9,8.7,285.9,5.6z M296.1,5.6c0-2.5-2-4.6-4.6-4.6c-2.6,0-4.6,2-4.6,4.6c0,2.5,2,4.6,4.6,4.6
				C294.1,10.2,296.1,8.2,296.1,5.6z M294.3,8.7H293l-1.4-2.6h-1.2v2.6h-1.2V2.6h2.9c0.5,0,1.2,0,1.7,0.3c0.5,0.4,0.7,0.9,0.7,1.6
				c0,1.1-0.6,1.6-1.7,1.7L294.3,8.7z M292.2,5.2c0.7,0,1.1-0.1,1.1-0.9c0-0.8-0.9-0.8-1.5-0.8h-1.5v1.7H292.2z"/>
		</g>
	</g>
</g>
</svg>
